<svg xmlns="http://www.w3.org/2000/svg" xmlns:xlink="http://www.w3.org/1999/xlink" width="500" zoomAndPan="magnify" viewBox="0 0 375 374.999991" height="500" preserveAspectRatio="xMidYMid meet" version="1.0"><defs><g/><clipPath id="id1"><path d="M 52.171875 13.527344 L 337.171875 13.527344 L 337.171875 345.777344 L 52.171875 345.777344 Z M 52.171875 13.527344 " clip-rule="nonzero"/></clipPath></defs><g clip-path="url(#id1)"><path fill="#000000" d="M 194.671875 13.527344 L 337.171875 96.589844 L 337.171875 262.714844 L 194.671875 345.777344 L 52.171875 262.714844 L 52.171875 96.589844 L 194.671875 13.527344 " fill-opacity="1" fill-rule="nonzero"/></g><g fill="#ff66c4" fill-opacity="1"><g transform="translate(136.839591, 224.537812)"><g><path d="M 57.644531 1.390625 C 73.769531 1.390625 87.105469 -7.65625 87.105469 -22.617188 C 87.105469 -34.332031 79.101562 -42.335938 68.433594 -44.421875 L 68.433594 -44.886719 C 78.523438 -47.671875 84.671875 -54.976562 84.671875 -65.183594 C 84.671875 -77.828125 74.117188 -86.644531 57.296875 -86.644531 C 45.46875 -86.644531 35.722656 -81.539062 27.605469 -73.652344 L 33.40625 -67.15625 C 40.132812 -74.230469 48.25 -77.828125 56.949219 -77.828125 C 68.199219 -77.828125 74.464844 -72.027344 74.464844 -64.023438 C 74.464844 -55.789062 66.34375 -48.136719 47.324219 -48.136719 L 47.324219 -40.015625 C 68.433594 -40.015625 76.785156 -33.40625 76.785156 -23.199219 C 76.785156 -13.453125 68.085938 -7.421875 57.066406 -7.421875 C 45.816406 -7.421875 37.230469 -12.292969 30.851562 -19.71875 L 25.285156 -12.992188 C 31.78125 -5.101562 41.988281 1.390625 57.644531 1.390625 Z M 57.644531 1.390625 "/></g></g></g><g fill="#38b6ff" fill-opacity="1"><g transform="translate(76.569813, 132.944067)"><g><path d="M -1.390625 57.644531 C -1.390625 73.769531 7.65625 87.105469 22.617188 87.105469 C 34.332031 87.105469 42.335938 79.101562 44.421875 68.433594 L 44.886719 68.433594 C 47.671875 78.523438 54.976562 84.671875 65.183594 84.671875 C 77.828125 84.671875 86.644531 74.117188 86.644531 57.296875 C 86.644531 45.46875 81.539062 35.722656 73.652344 27.605469 L 67.15625 33.40625 C 74.230469 40.132812 77.828125 48.25 77.828125 56.949219 C 77.828125 68.199219 72.027344 74.464844 64.023438 74.464844 C 55.789062 74.464844 48.136719 66.34375 48.136719 47.324219 L 40.015625 47.324219 C 40.015625 68.433594 33.40625 76.785156 23.199219 76.785156 C 13.453125 76.785156 7.421875 68.085938 7.421875 57.066406 C 7.421875 45.816406 12.292969 37.230469 19.71875 30.851562 L 12.992188 25.285156 C 5.101562 31.78125 -1.390625 41.988281 -1.390625 57.644531 Z M -1.390625 57.644531 "/></g></g></g><g fill="#ffde59" fill-opacity="1"><g transform="translate(224.408368, 224.537812)"><g><path d="M 79.234375 -43.15625 C 79.234375 -29.332031 75.425781 -18.679688 67.8125 -11.203125 C 60.207031 -3.734375 49.515625 0 35.734375 0 L 8.953125 0 L 8.953125 -82.796875 L 37.609375 -82.796875 C 50.898438 -82.796875 61.160156 -79.394531 68.390625 -72.59375 C 75.617188 -65.800781 79.234375 -55.988281 79.234375 -43.15625 Z M 56.015625 -42.359375 C 56.015625 -49.953125 54.507812 -55.578125 51.5 -59.234375 C 48.5 -62.898438 43.941406 -64.734375 37.828125 -64.734375 L 31.3125 -64.734375 L 31.3125 -18.34375 L 36.296875 -18.34375 C 43.097656 -18.34375 48.082031 -20.316406 51.25 -24.265625 C 54.425781 -28.210938 56.015625 -34.242188 56.015625 -42.359375 Z M 56.015625 -42.359375 "/></g></g></g></svg>