<svg xmlns="http://www.w3.org/2000/svg" xmlns:xlink="http://www.w3.org/1999/xlink" width="500" zoomAndPan="magnify" viewBox="0 0 375 374.999991" height="500" preserveAspectRatio="xMidYMid meet" version="1.0"><defs><g/><clipPath id="id1"><path d="M 25.230469 0 L 349.980469 0 L 349.980469 375 L 25.230469 375 Z M 25.230469 0 " clip-rule="nonzero"/></clipPath><clipPath id="id2"><path d="M 35.503906 10.632812 L 339.253906 10.632812 L 339.253906 364.632812 L 35.503906 364.632812 Z M 35.503906 10.632812 " clip-rule="nonzero"/></clipPath></defs><g clip-path="url(#id1)"><path fill="#38b6ff" d="M 187.605469 -1.324219 L 349.980469 93.175781 L 349.980469 282.175781 L 187.605469 376.671875 L 25.230469 282.175781 L 25.230469 93.175781 L 187.605469 -1.324219 " fill-opacity="1" fill-rule="nonzero"/></g><g clip-path="url(#id2)"><path fill="#000000" d="M 187.378906 10.636719 L 339.253906 99.136719 L 339.253906 276.132812 L 187.378906 364.632812 L 35.503906 276.132812 L 35.503906 99.136719 L 187.378906 10.636719 " fill-opacity="1" fill-rule="nonzero"/></g><g fill="#ff66c4" fill-opacity="1"><g transform="translate(145.42337, 261.749983)"><g><path d="M 95.410156 2.304688 C 122.09375 2.304688 144.167969 -12.671875 144.167969 -37.433594 C 144.167969 -56.824219 130.921875 -70.070312 113.261719 -73.523438 L 113.261719 -74.292969 C 129.964844 -78.898438 140.136719 -90.992188 140.136719 -107.886719 C 140.136719 -128.8125 122.667969 -143.402344 94.832031 -143.402344 C 75.253906 -143.402344 59.125 -134.953125 45.6875 -121.902344 L 55.289062 -111.152344 C 66.421875 -122.859375 79.859375 -128.8125 94.257812 -128.8125 C 112.878906 -128.8125 123.246094 -119.214844 123.246094 -105.96875 C 123.246094 -92.335938 109.808594 -79.667969 78.324219 -79.667969 L 78.324219 -66.230469 C 113.261719 -66.230469 127.085938 -55.289062 127.085938 -38.394531 C 127.085938 -22.269531 112.6875 -12.285156 94.449219 -12.285156 C 75.828125 -12.285156 61.621094 -20.347656 51.0625 -32.636719 L 41.847656 -21.5 C 52.601562 -8.445312 69.492188 2.304688 95.410156 2.304688 Z M 95.410156 2.304688 "/></g></g></g><g fill="#38b6ff" fill-opacity="1"><g transform="translate(52.098635, 104.349581)"><g><path d="M -2.304688 95.410156 C -2.304688 122.09375 12.671875 144.167969 37.433594 144.167969 C 56.824219 144.167969 70.070312 130.921875 73.523438 113.261719 L 74.292969 113.261719 C 78.898438 129.964844 90.992188 140.136719 107.886719 140.136719 C 128.8125 140.136719 143.402344 122.667969 143.402344 94.832031 C 143.402344 75.253906 134.953125 59.125 121.902344 45.6875 L 111.152344 55.289062 C 122.859375 66.421875 128.8125 79.859375 128.8125 94.257812 C 128.8125 112.878906 119.214844 123.246094 105.96875 123.246094 C 92.335938 123.246094 79.667969 109.808594 79.667969 78.324219 L 66.230469 78.324219 C 66.230469 113.261719 55.289062 127.085938 38.394531 127.085938 C 22.269531 127.085938 12.285156 112.6875 12.285156 94.449219 C 12.285156 75.828125 20.347656 61.621094 32.636719 51.0625 L 21.5 41.847656 C 8.445312 52.601562 -2.304688 69.492188 -2.304688 95.410156 Z M -2.304688 95.410156 "/></g></g></g></svg>